<svg width="36" height="40" viewBox="0 0 36 40" fill="none" xmlns="http://www.w3.org/2000/svg">
<path d="M32.4784 35.8794C32.0064 35.8794 31.5345 35.8794 31.0625 35.8794C29.8317 35.8794 28.6054 35.8794 27.3746 35.8794C25.6579 35.8794 23.9366 35.8794 22.2199 35.8794C20.3042 35.8794 18.3885 35.8794 16.4729 35.8794C14.6313 35.8794 12.785 35.8794 10.9434 35.8794C9.44877 35.8794 7.95418 35.8794 6.45959 35.8794C5.58968 35.8794 4.72439 35.8794 3.85447 35.8794C3.67864 35.8794 3.49817 35.8794 3.32234 35.8707C3.15113 35.8664 3.51668 35.9097 3.28532 35.8664C3.20203 35.8534 3.12337 35.836 3.04471 35.8144C3.01694 35.8057 2.84111 35.7667 2.84111 35.7493C2.84111 35.7493 3.02157 35.8317 2.89201 35.771C2.84574 35.7493 2.79946 35.7277 2.75782 35.706C2.69767 35.6756 2.63289 35.641 2.57736 35.6063C2.58199 35.6106 2.47556 35.5456 2.47556 35.5413C2.47556 35.5413 2.62363 35.6626 2.5172 35.5716C2.3969 35.4719 2.28584 35.3679 2.17479 35.2509C2.05911 35.1251 2.21181 35.2899 2.20718 35.2899C2.20255 35.2899 2.14703 35.2075 2.13777 35.1945C2.0915 35.1295 2.05448 35.0645 2.01284 34.9994C1.99896 34.9734 1.98507 34.9474 1.97119 34.9214C1.9388 34.8607 1.96194 34.8001 1.95731 34.8954C1.96657 34.9128 1.97119 34.9301 1.98045 34.9474C1.97119 34.9214 1.95731 34.8954 1.94806 34.8651C1.93418 34.8174 1.91567 34.774 1.90179 34.7264C1.88328 34.6613 1.86477 34.5963 1.85089 34.527C1.80924 34.3102 1.86014 34.6874 1.84626 34.462C1.84163 34.4099 1.84163 34.3536 1.84163 34.3016C1.82775 32.9622 1.84163 31.6228 1.84163 30.2877C1.84163 29.5725 1.84163 28.8529 1.84163 28.1377C1.84163 28.012 1.84163 27.8906 1.84163 27.7649C1.84163 27.7259 1.84163 27.6826 1.84626 27.6436C1.84626 27.6522 1.85089 27.5265 1.85551 27.5265C1.86014 27.5265 1.80924 27.7519 1.84626 27.5829C1.85551 27.5352 1.92955 27.1364 1.97582 27.1364C1.98045 27.1364 1.87402 27.3358 1.95268 27.1841C1.97119 27.1494 1.9897 27.1147 2.00821 27.0801C2.0406 27.0194 2.07762 26.963 2.11464 26.9067C2.13777 26.8763 2.16091 26.846 2.18405 26.8113C2.23494 26.7246 2.12852 26.885 2.12852 26.872C2.12389 26.8287 2.27659 26.7116 2.30898 26.6813C2.36451 26.6293 2.42466 26.5772 2.48481 26.5252C2.65139 26.3865 2.37839 26.5859 2.51258 26.5079C2.58199 26.4689 2.64677 26.4255 2.7208 26.3865C2.75782 26.3692 2.79021 26.3518 2.82723 26.3345C2.84574 26.3258 2.86425 26.3172 2.88275 26.3085C2.95679 26.2782 2.95679 26.2782 2.88275 26.3085C2.80872 26.3042 2.8226 26.3258 2.88738 26.3085C2.9244 26.2955 2.96604 26.2825 3.00306 26.2738C3.08172 26.2522 3.16501 26.2305 3.24368 26.2175C3.28069 26.2088 3.33159 26.2088 3.36861 26.1958C3.36398 26.1958 3.1789 26.2088 3.28069 26.2088C3.35473 26.2088 3.42877 26.2001 3.50743 26.2001C3.53982 26.2001 3.57684 26.2001 3.60923 26.2001C3.84984 26.2001 4.09509 26.2001 4.3357 26.2001C5.41384 26.2001 6.48735 26.2001 7.5655 26.2001C9.18502 26.2001 10.8092 26.2001 12.4287 26.2001C14.3212 26.2001 16.2138 26.2001 18.1063 26.2001C19.9942 26.2001 21.8775 26.2001 23.7654 26.2001C25.371 26.2001 26.972 26.2001 28.5777 26.2001C29.6234 26.2001 30.6692 26.2001 31.7149 26.2001C31.9417 26.2001 32.1684 26.2001 32.3951 26.2001C32.4969 26.2001 32.6404 26.2348 32.7237 26.2131C32.7237 26.2131 32.5339 26.1828 32.6357 26.2001C32.6774 26.2088 32.719 26.2131 32.7607 26.2218C32.8301 26.2348 32.8995 26.2522 32.9689 26.2738C33.0105 26.2868 33.0476 26.2998 33.0846 26.3085C33.2604 26.3562 33.0291 26.2868 33.0337 26.2868C33.0661 26.2738 33.2465 26.3865 33.2789 26.4039C33.3391 26.4385 33.3992 26.4732 33.4594 26.5079C33.6121 26.5946 33.4131 26.4732 33.4177 26.4732C33.4316 26.4732 33.4964 26.5339 33.5103 26.5469C33.5704 26.5989 33.8434 26.794 33.8434 26.872C33.8434 26.8503 33.737 26.7246 33.8064 26.833C33.8296 26.8633 33.8527 26.898 33.8712 26.9284C33.9082 26.9847 33.9452 27.0411 33.9776 27.1017C33.9961 27.1364 34.01 27.1711 34.0285 27.2058C34.0841 27.3055 33.9869 27.0454 34.0054 27.1581C34.0193 27.2404 34.0656 27.3228 34.0887 27.4052C34.1072 27.4702 34.1165 27.5395 34.1303 27.6046C34.1535 27.7216 34.1165 27.4312 34.1211 27.5525C34.1211 27.5916 34.1257 27.6306 34.1303 27.6739C34.1303 27.7086 34.1303 27.7433 34.1303 27.7823C34.1303 27.9383 34.1303 28.0987 34.1303 28.2548C34.1303 28.996 34.1303 29.7372 34.1303 30.4828C34.1303 31.7615 34.1442 33.0402 34.1303 34.3189C34.1303 34.3796 34.1257 34.4403 34.1211 34.501C34.1211 34.6397 34.1303 34.4446 34.135 34.4489C34.1396 34.4533 34.1118 34.5703 34.1118 34.566C34.1026 34.6093 34.0332 34.9518 33.9915 34.9561C33.9915 34.9561 34.0794 34.787 34.0147 34.9084C33.9961 34.9431 33.9776 34.9778 33.9591 35.0124C33.9221 35.0775 33.8805 35.1468 33.8342 35.2075C33.8249 35.2205 33.7694 35.3029 33.7648 35.3029C33.7602 35.3029 33.8851 35.1685 33.8157 35.2378C33.7602 35.2942 33.7093 35.3505 33.6537 35.4069C33.6028 35.4546 33.5519 35.4979 33.501 35.5413C33.501 35.5413 33.4224 35.615 33.4085 35.615C33.4039 35.615 33.6028 35.4936 33.4501 35.5803C33.3206 35.654 33.1864 35.7233 33.0522 35.7883C32.9458 35.8404 33.2234 35.7493 33.1031 35.7667C33.0753 35.771 33.0429 35.7883 33.0152 35.797C32.9365 35.823 32.8579 35.8404 32.7746 35.8577C32.7329 35.8664 32.6913 35.875 32.6496 35.8794C32.5478 35.8967 32.5895 35.8447 32.7098 35.8707C32.6635 35.849 32.5478 35.8794 32.4784 35.8794C31.9926 35.8837 31.5298 36.2738 31.553 36.7463C31.5761 37.2101 31.9602 37.6176 32.4784 37.6132C34.0979 37.5959 35.6388 36.4949 35.9257 34.9648C36.0275 34.4229 35.9951 33.8681 35.9951 33.3176C35.9951 31.6704 35.9951 30.0276 35.9951 28.3805C35.9951 27.6392 35.9673 26.9414 35.6018 26.2522C35.0188 25.1512 33.7555 24.4793 32.4645 24.4663C31.8815 24.4619 31.2985 24.4663 30.7201 24.4663C29.3921 24.4663 28.0641 24.4663 26.7314 24.4663C24.9361 24.4663 23.1453 24.4663 21.35 24.4663C19.388 24.4663 17.4261 24.4663 15.4688 24.4663C13.6318 24.4663 11.7994 24.4663 9.96239 24.4663C8.55109 24.4663 7.13979 24.4663 5.72849 24.4663C5.02053 24.4663 4.31719 24.4663 3.60923 24.4663C2.69767 24.4663 1.85551 24.7567 1.16606 25.3159C0.33316 25.9964 0 26.976 0 27.9817C0 29.5465 0 31.1113 0 32.6761C0 33.2092 0 33.7424 0 34.2756C0.00462721 35.5543 0.800508 36.794 2.07299 37.3098C2.91052 37.6479 3.73879 37.6089 4.61796 37.6089C5.79327 37.6089 6.96396 37.6089 8.13927 37.6089C9.84671 37.6089 11.5588 37.6089 13.2662 37.6089C15.2143 37.6089 17.1623 37.6089 19.1104 37.6089C20.9937 37.6089 22.8816 37.6089 24.7649 37.6089C26.3103 37.6089 27.8558 37.6089 29.4013 37.6089C30.3083 37.6089 31.2106 37.6089 32.1175 37.6089C32.2378 37.6089 32.3581 37.6089 32.4784 37.6089C32.9643 37.6089 33.427 37.2101 33.4039 36.742C33.3807 36.2738 32.9967 35.8794 32.4784 35.8794Z" fill="#EE2124"/>
<path d="M18.9207 25.3376C18.9207 24.0935 18.9207 22.8452 18.9207 21.6011C18.9207 19.6159 18.9207 17.6349 18.9207 15.6497C18.9207 15.1945 18.9207 14.7437 18.9207 14.2886C18.9207 13.8335 18.495 13.4 17.9953 13.4217C17.4955 13.4434 17.0698 13.8031 17.0698 14.2886C17.0698 15.5326 17.0698 16.781 17.0698 18.0251C17.0698 20.0103 17.0698 21.9912 17.0698 23.9765C17.0698 24.4316 17.0698 24.8825 17.0698 25.3376C17.0698 25.7927 17.4955 26.2262 17.9953 26.2045C18.495 26.1828 18.9207 25.8231 18.9207 25.3376Z" fill="#EE2124"/>
<path d="M20.5448 11.0379C20.5448 11.1202 20.5401 11.1982 20.5355 11.2806C20.5309 11.3153 20.517 11.3716 20.5216 11.402C20.517 11.3803 20.5587 11.1939 20.5263 11.35C20.4939 11.506 20.4615 11.6577 20.406 11.8051C20.3921 11.8398 20.3551 12.0088 20.3227 12.0218C20.3227 12.0218 20.4245 11.8224 20.3412 11.9741C20.3227 12.0088 20.3042 12.0435 20.2856 12.0782C20.2116 12.2125 20.1283 12.3469 20.0358 12.4683C20.0312 12.4726 19.9803 12.555 19.9664 12.5593C19.971 12.5593 20.1144 12.3946 19.9988 12.516C19.9432 12.5723 19.8923 12.6287 19.8368 12.685C19.7859 12.7327 19.735 12.7804 19.6841 12.8237C19.6563 12.8497 19.624 12.8757 19.5916 12.8974C19.4666 13.0015 19.5962 12.9321 19.6147 12.8888C19.5823 12.9754 19.2908 13.0925 19.2075 13.1358C19.1427 13.1662 19.0826 13.1965 19.0178 13.2269C18.9854 13.2399 18.8605 13.2962 18.99 13.2399C19.1242 13.1835 18.9576 13.2485 18.9299 13.2615C18.7726 13.3135 18.6106 13.3569 18.4486 13.3872C18.4024 13.3959 18.1803 13.4046 18.3237 13.4089C18.4625 13.4132 18.3283 13.4046 18.2867 13.4089C18.2312 13.4132 18.1803 13.4176 18.1247 13.4176C17.9628 13.4219 17.7638 13.3742 17.6065 13.4002C17.6065 13.4002 17.7962 13.4306 17.6944 13.4132C17.6528 13.4046 17.6111 13.4002 17.5695 13.3916C17.4769 13.3742 17.3844 13.3526 17.2965 13.3309C17.2178 13.3092 17.1391 13.2875 17.0605 13.2615C17.0235 13.2485 16.9818 13.2269 16.9448 13.2182C16.9679 13.2225 17.1391 13.3049 16.9957 13.2355C16.8476 13.1662 16.7042 13.0968 16.57 13.0145C16.533 12.9928 16.3849 12.9234 16.371 12.8844C16.371 12.8887 16.5469 13.0231 16.4173 12.9148C16.3895 12.8888 16.3571 12.8671 16.3248 12.8411C16.2044 12.737 16.098 12.6287 15.987 12.516C15.9037 12.4336 15.9638 12.5376 16.0194 12.5593C16.0008 12.555 15.9546 12.4726 15.9499 12.4683C15.9037 12.4076 15.8574 12.3426 15.8158 12.2776C15.7787 12.2212 15.7464 12.1605 15.7093 12.1042C15.6908 12.0695 15.6723 12.0348 15.6538 12.0002C15.5705 11.8484 15.626 12.0088 15.6584 12.0218C15.589 11.9915 15.5335 11.6751 15.515 11.6057C15.4965 11.5277 15.478 11.454 15.4641 11.376C15.4548 11.3326 15.4641 11.2199 15.4548 11.3456C15.4456 11.4843 15.4548 11.3153 15.4502 11.2806C15.4363 11.1289 15.4363 10.9772 15.4502 10.8255C15.4548 10.7865 15.4595 10.7474 15.4595 10.7041C15.4687 10.5827 15.4271 10.8775 15.4502 10.7561C15.4687 10.6694 15.4826 10.5827 15.5057 10.496C15.5428 10.353 15.5937 10.2186 15.6446 10.0799C15.6862 9.97154 15.5659 10.2316 15.6214 10.1276C15.6399 10.0929 15.6538 10.0582 15.6723 10.0236C15.714 9.94553 15.7556 9.87185 15.8065 9.79816C15.8482 9.73314 15.8944 9.66812 15.9407 9.60743C15.9546 9.59009 15.9962 9.52074 16.0101 9.51641C16.0194 9.51207 15.8852 9.65078 15.9592 9.58143C16.0795 9.46439 16.1859 9.34302 16.3155 9.23465C16.3433 9.20865 16.3757 9.18697 16.408 9.16097C16.496 9.08728 16.3849 9.13929 16.3618 9.19131C16.3803 9.14796 16.4913 9.10462 16.5376 9.07427C16.6811 8.98325 16.8337 8.90956 16.9911 8.83587C17.1114 8.77952 16.9541 8.83153 16.9402 8.85321C16.9448 8.84454 17.0559 8.81419 17.0559 8.80986C17.1253 8.78819 17.1947 8.76651 17.2641 8.74484C17.3427 8.72317 17.426 8.70583 17.5047 8.68849C17.5463 8.67982 17.588 8.67115 17.6296 8.66682C17.6481 8.66248 17.6713 8.65815 17.6944 8.65815C17.7638 8.64948 17.7361 8.64948 17.6065 8.67115C17.6481 8.61914 18.0183 8.64948 18.0923 8.65381C18.1803 8.65815 18.2636 8.66682 18.3515 8.67115C18.481 8.67982 18.171 8.64081 18.2959 8.66248C18.3468 8.67115 18.3977 8.67982 18.4533 8.68849C18.6384 8.72317 18.8142 8.77518 18.99 8.83587C19.1196 8.87921 18.9576 8.80553 18.9391 8.8142C18.953 8.80986 19.0363 8.85754 19.0502 8.86188C19.1427 8.90522 19.2306 8.94857 19.3186 9.00058C19.388 9.0396 19.4574 9.08294 19.5222 9.12629C19.5314 9.13062 19.6147 9.1783 19.6193 9.19131C19.5222 9.11762 19.499 9.10462 19.5499 9.14363C19.5731 9.16097 19.5962 9.1783 19.6193 9.19998C19.7581 9.31268 19.8785 9.43838 20.0034 9.56409C20.0265 9.59009 20.0959 9.62911 20.008 9.56409C19.9062 9.48606 20.0219 9.58142 20.045 9.61177C20.0959 9.68112 20.1468 9.75481 20.1931 9.8285C20.2394 9.90219 20.281 9.98021 20.3227 10.0539C20.3227 10.0496 20.3782 10.1493 20.3736 10.1579C20.3874 10.1276 20.2949 9.97588 20.3597 10.1363C20.4245 10.301 20.4754 10.47 20.5124 10.6434C20.5216 10.6824 20.5263 10.7214 20.5355 10.7604C20.5587 10.8688 20.5216 10.5741 20.5309 10.7388C20.5355 10.8341 20.5448 10.9338 20.5448 11.0379C20.5494 11.493 20.9658 11.9265 21.4702 11.9048C21.97 11.8831 22.4003 11.5233 22.3957 11.0379C22.3771 9.28234 21.1972 7.75655 19.4481 7.1497C17.7823 6.56886 15.7602 7.09335 14.6358 8.3764C13.4605 9.72013 13.243 11.6404 14.2101 13.1532C15.1818 14.6659 17.0697 15.4072 18.9067 15.0691C20.9288 14.7006 22.3725 12.9364 22.391 11.0379C22.3957 10.5827 21.9607 10.1493 21.4656 10.1709C20.9658 10.1926 20.5494 10.5524 20.5448 11.0379Z" fill="#EE2124"/>
<path d="M7.42217 39.133C7.42217 38.3355 7.42217 37.5422 7.42217 36.7447C7.42217 36.2895 6.99647 35.8561 6.49673 35.8777C5.99699 35.8994 5.57129 36.2592 5.57129 36.7447C5.57129 37.5422 5.57129 38.3355 5.57129 39.133C5.57129 39.5882 5.99699 40.0216 6.49673 40C6.99647 39.9783 7.42217 39.6185 7.42217 39.133Z" fill="#EE2124"/>
<path d="M30.4197 39.1311C30.4197 38.3335 30.4197 37.5403 30.4197 36.7427C30.4197 36.2876 29.994 35.8541 29.4943 35.8758C28.9946 35.8975 28.5688 36.2572 28.5688 36.7427C28.5688 37.5403 28.5688 38.3335 28.5688 39.1311C28.5688 39.5862 28.9946 40.0197 29.4943 39.998C29.994 39.9763 30.4197 39.6166 30.4197 39.1311Z" fill="#EE2124"/>
<path d="M12.3732 16.3045C12.2159 16.1528 12.0586 16.0011 11.9105 15.8407C11.8364 15.7627 11.767 15.6803 11.6976 15.598C11.5912 15.4766 11.7023 15.6066 11.7208 15.624C11.6606 15.5633 11.6143 15.4896 11.5634 15.4246C11.3089 15.0908 11.0822 14.7397 10.8832 14.3756C10.8323 14.2846 10.7861 14.1935 10.7398 14.1025C10.7213 14.0678 10.7028 14.0288 10.6843 13.9942C10.6565 13.9378 10.5501 13.7948 10.675 13.9811C10.5686 13.8251 10.5131 13.5954 10.4529 13.4176C10.3141 13.0189 10.2077 12.6114 10.1336 12.1996C10.1244 12.1606 10.1197 12.1216 10.1151 12.0826C10.1105 12.0609 10.0966 11.8702 10.1059 12.0219C10.1105 12.1736 10.1012 11.9785 10.1012 11.9612C10.0966 11.9222 10.092 11.8832 10.0874 11.8442C10.0642 11.6274 10.0503 11.4107 10.0457 11.194C10.0411 10.9946 10.0457 10.7995 10.055 10.6001C10.0596 10.5004 10.0688 10.4007 10.0781 10.3054C10.0827 10.236 10.0688 10.0626 10.1105 10.0106C10.1059 10.0496 10.1012 10.0843 10.092 10.1233C10.0966 10.0843 10.1059 10.0453 10.1105 10.0063C10.1151 9.96728 10.1244 9.92827 10.129 9.88926C10.1475 9.78956 10.166 9.6942 10.1892 9.5945C10.2354 9.3821 10.291 9.16537 10.3557 8.95731C10.4113 8.78392 10.4668 8.61487 10.5362 8.44582C10.5732 8.35046 10.6102 8.25943 10.6519 8.16407C10.7305 7.96901 10.564 8.34179 10.6565 8.14673C10.6843 8.09038 10.7074 8.03403 10.7352 7.98202C10.948 7.55722 11.1933 7.14977 11.4801 6.76399C11.5496 6.66862 11.6236 6.5776 11.693 6.48657C11.7763 6.3782 11.5542 6.65128 11.693 6.4909C11.7346 6.44322 11.7763 6.39121 11.8179 6.34353C11.9891 6.14847 12.1742 5.96208 12.3639 5.78002C12.7064 5.45926 12.7341 4.86975 12.3639 4.55332C11.9938 4.23689 11.42 4.21089 11.0544 4.55332C9.65703 5.87105 8.67143 7.58757 8.3429 9.42545C8.00511 11.3067 8.26424 13.1966 9.10639 14.9304C9.57836 15.8971 10.2539 16.7813 11.0544 17.5355C11.3969 17.8563 12.0262 17.878 12.3639 17.5355C12.7156 17.1801 12.7388 16.6469 12.3732 16.3045Z" fill="#EE2124"/>
<path d="M23.6175 5.77131C23.7748 5.92302 23.9321 6.07473 24.0802 6.23511C24.1543 6.31313 24.2237 6.39549 24.2931 6.47785C24.3995 6.59922 24.2884 6.46918 24.2699 6.45184C24.3301 6.51253 24.3764 6.58622 24.4273 6.65124C24.6818 6.985 24.9085 7.33611 25.1075 7.70022C25.1584 7.79124 25.2046 7.88227 25.2509 7.9733C25.2694 8.00798 25.2879 8.04699 25.3064 8.08167C25.3342 8.13802 25.4406 8.28106 25.3157 8.09467C25.4221 8.25072 25.4776 8.48045 25.5378 8.65817C25.6766 9.05696 25.783 9.46441 25.8571 9.8762C25.8663 9.91521 25.8709 9.95423 25.8756 9.99324C25.8802 10.0149 25.8941 10.2056 25.8848 10.0539C25.8802 9.90221 25.8895 10.0973 25.8895 10.1146C25.8941 10.1536 25.8987 10.1926 25.9033 10.2316C25.9265 10.4484 25.9404 10.6651 25.945 10.8818C25.9496 11.0812 25.945 11.2763 25.9357 11.4757C25.9311 11.5754 25.9218 11.6751 25.9126 11.7704C25.908 11.8398 25.9218 12.0132 25.8802 12.0652C25.8848 12.0262 25.8895 11.9915 25.8987 11.9525C25.8941 11.9915 25.8848 12.0305 25.8802 12.0695C25.8756 12.1085 25.8663 12.1475 25.8617 12.1866C25.8432 12.2863 25.8247 12.3816 25.8015 12.4813C25.7553 12.6937 25.6997 12.9104 25.635 13.1185C25.5794 13.2919 25.5239 13.4609 25.4545 13.63C25.4175 13.7254 25.3805 13.8164 25.3388 13.9117C25.2602 14.1068 25.4267 13.734 25.3342 13.9291C25.3064 13.9854 25.2833 14.0418 25.2555 14.0938C25.0427 14.5186 24.7974 14.926 24.5105 15.3118C24.4411 15.4072 24.3671 15.4982 24.2977 15.5892C24.2144 15.6976 24.4365 15.4245 24.2977 15.5849C24.256 15.6326 24.2144 15.6846 24.1728 15.7323C24.0016 15.9274 23.8165 16.1137 23.6267 16.2958C23.2843 16.6166 23.2566 17.2061 23.6267 17.5225C23.9969 17.8389 24.5707 17.8649 24.9362 17.5225C26.3337 16.2048 27.3193 14.4883 27.6478 12.6504C27.9856 10.7691 27.7265 8.87924 26.8843 7.14538C26.4123 6.17876 25.7368 5.2945 24.9362 4.54027C24.5938 4.21951 23.9645 4.19783 23.6267 4.54027C23.2751 4.89138 23.2519 5.42887 23.6175 5.77131Z" fill="#EE2124"/>
<path d="M7.78776 20.5959C7.50087 20.3271 7.22324 20.0454 6.95486 19.755C6.82993 19.6206 6.70962 19.4819 6.59394 19.3432C6.56155 19.3042 6.45512 19.1871 6.59394 19.3475C6.56618 19.3172 6.53841 19.2825 6.51528 19.2478C6.4505 19.1655 6.38109 19.0831 6.31631 18.9964C5.86284 18.4069 5.45564 17.7827 5.10398 17.1325C5.02069 16.9808 4.94202 16.8248 4.86336 16.6687C4.82634 16.595 4.78933 16.5213 4.75694 16.4476C4.73843 16.4086 4.72455 16.374 4.70604 16.3349C4.62275 16.1572 4.77082 16.4823 4.69678 16.3176C4.54871 15.9838 4.41452 15.6457 4.29421 15.299C4.05823 14.6271 3.87776 13.9336 3.7482 13.2357C3.73432 13.149 3.71581 13.058 3.70193 12.9713C3.69268 12.9063 3.66491 12.6548 3.69268 12.9063C3.67417 12.7285 3.6464 12.5508 3.6279 12.3731C3.59088 12.0177 3.57237 11.6622 3.56311 11.3024C3.55386 10.947 3.56311 10.5872 3.58625 10.2318C3.5955 10.0627 3.60939 9.89368 3.6279 9.72463C3.6464 9.55558 3.63252 9.32151 3.69268 9.16113C3.68805 9.17847 3.66029 9.37353 3.68342 9.21315C3.68805 9.17413 3.6973 9.13512 3.70193 9.09611C3.71581 9.01809 3.72969 8.94006 3.74358 8.86204C3.77597 8.67565 3.81298 8.48926 3.85463 8.30287C3.93329 7.96044 4.02121 7.62233 4.12301 7.28423C4.22943 6.93746 4.34974 6.59503 4.48393 6.25693C4.54871 6.09654 4.61349 5.93616 4.6829 5.78012C4.70604 5.72377 4.73843 5.59373 4.67827 5.79312C4.68753 5.75844 4.71529 5.7151 4.72917 5.68042C4.77082 5.58939 4.81709 5.49403 4.86336 5.403C5.23354 4.66178 5.6685 3.9509 6.16361 3.27903C6.28392 3.11865 6.40885 2.95827 6.53378 2.80222C6.56617 2.75888 6.65409 2.63751 6.53378 2.80222C6.56617 2.75888 6.60319 2.71986 6.63558 2.68085C6.70499 2.59849 6.7744 2.51614 6.84844 2.43811C7.14458 2.10435 7.45923 1.78358 7.78776 1.47582C8.13017 1.15506 8.15794 0.565552 7.78776 0.249123C7.41758 -0.0673048 6.84381 -0.0933126 6.47826 0.249123C4.13226 2.45545 2.50811 5.32931 1.95747 8.40257C1.40221 11.4888 1.84179 14.6401 3.23458 17.4836C4.02584 19.0961 5.14562 20.5655 6.47826 21.8226C6.82067 22.1434 7.44997 22.165 7.78776 21.8226C8.13017 21.4758 8.15331 20.9427 7.78776 20.5959Z" fill="#EE2124"/>
<path d="M28.2029 1.47547C28.4898 1.74421 28.7674 2.02597 29.0358 2.31639C29.1607 2.45076 29.281 2.58947 29.3967 2.72818C29.4291 2.76719 29.5355 2.88422 29.3967 2.72384C29.4245 2.75418 29.4522 2.78886 29.4754 2.82354C29.5401 2.9059 29.6095 2.98825 29.6743 3.07495C30.1278 3.66446 30.535 4.28864 30.8867 4.93884C30.9699 5.09055 31.0486 5.2466 31.1273 5.40265C31.1643 5.47633 31.2013 5.55002 31.2337 5.62371C31.2522 5.66272 31.2661 5.6974 31.2846 5.73641C31.3679 5.91413 31.2198 5.58903 31.2939 5.75375C31.4419 6.08752 31.5761 6.42562 31.6964 6.77239C31.9324 7.44426 32.1129 8.1378 32.2424 8.83568C32.2563 8.92237 32.2748 9.0134 32.2887 9.10009C32.298 9.16511 32.3257 9.41652 32.298 9.16511C32.3165 9.34283 32.3442 9.52055 32.3627 9.69827C32.3998 10.0537 32.4183 10.4091 32.4275 10.7689C32.4368 11.1244 32.4275 11.4841 32.4044 11.8396C32.3951 12.0086 32.3812 12.1777 32.3627 12.3467C32.3442 12.5158 32.3581 12.7498 32.298 12.9102C32.3026 12.8929 32.3303 12.6978 32.3072 12.8582C32.3026 12.8972 32.2933 12.9362 32.2887 12.9752C32.2748 13.0533 32.2609 13.1313 32.2471 13.2093C32.2147 13.3957 32.1776 13.5821 32.136 13.7685C32.0573 14.1109 31.9694 14.449 31.8676 14.7871C31.7612 15.1339 31.6409 15.4763 31.5067 15.8144C31.4419 15.9748 31.3771 16.1352 31.3077 16.2912C31.2846 16.3476 31.2522 16.4776 31.3124 16.2782C31.3031 16.3129 31.2753 16.3563 31.2615 16.3909C31.2198 16.482 31.1735 16.5773 31.1273 16.6684C30.7571 17.4096 30.3221 18.1205 29.827 18.7923C29.7067 18.9527 29.5818 19.1131 29.4568 19.2691C29.4245 19.3125 29.3365 19.4339 29.4568 19.2691C29.4245 19.3125 29.3874 19.3515 29.355 19.3905C29.2856 19.4729 29.2162 19.5552 29.1422 19.6332C28.8461 19.967 28.5314 20.2878 28.2029 20.5955C27.8605 20.9163 27.8327 21.5058 28.2029 21.8222C28.573 22.1387 29.1468 22.1647 29.5124 21.8222C31.8584 19.6159 33.4825 16.742 34.0332 13.6688C34.5884 10.5825 34.1488 7.43125 32.756 4.58773C31.9648 2.97525 30.845 1.50581 29.5124 0.248766C29.17 -0.0719969 28.5407 -0.0936701 28.2029 0.248766C27.8605 0.595537 27.8373 1.13303 28.2029 1.47547Z" fill="#EE2124"/>
<path d="M18.9993 32.9749C18.9993 31.8479 18.9993 30.7209 18.9993 29.5896C18.9993 29.4292 18.9993 29.2688 18.9993 29.1084C18.9993 28.6533 18.5736 28.2198 18.0739 28.2415C17.5741 28.2632 17.1484 28.623 17.1484 29.1084C17.1484 30.2354 17.1484 31.3624 17.1484 32.4938C17.1484 32.6542 17.1484 32.8145 17.1484 32.9749C17.1484 33.4301 17.5741 33.8635 18.0739 33.8418C18.5782 33.8202 18.9993 33.4604 18.9993 32.9749Z" fill="#EE2124"/>
<path d="M25.1165 32.9749C25.1165 31.8479 25.1165 30.7209 25.1165 29.5896C25.1165 29.4292 25.1165 29.2688 25.1165 29.1084C25.1165 28.6533 24.6908 28.2198 24.1911 28.2415C23.6913 28.2632 23.2656 28.623 23.2656 29.1084C23.2656 30.2354 23.2656 31.3624 23.2656 32.4938C23.2656 32.6542 23.2656 32.8145 23.2656 32.9749C23.2656 33.4301 23.6913 33.8635 24.1911 33.8418C24.6954 33.8202 25.1165 33.4604 25.1165 32.9749Z" fill="#EE2124"/>
<path d="M31.1551 32.9749C31.1551 31.8479 31.1551 30.7209 31.1551 29.5896C31.1551 29.4292 31.1551 29.2688 31.1551 29.1084C31.1551 28.6533 30.7294 28.2198 30.2296 28.2415C29.7299 28.2632 29.3042 28.623 29.3042 29.1084C29.3042 30.2354 29.3042 31.3624 29.3042 32.4938C29.3042 32.6542 29.3042 32.8145 29.3042 32.9749C29.3042 33.4301 29.7299 33.8635 30.2296 33.8418C30.7294 33.8202 31.1551 33.4604 31.1551 32.9749Z" fill="#EE2124"/>
<path d="M12.7251 30.1748C10.6845 30.1748 8.64857 30.1748 6.60797 30.1748C6.32108 30.1748 6.02957 30.1748 5.74268 30.1748C5.25682 30.1748 4.7941 30.5736 4.81724 31.0417C4.84037 31.5099 5.22443 31.9087 5.74268 31.9087C7.78328 31.9087 9.81926 31.9087 11.8599 31.9087C12.1467 31.9087 12.4383 31.9087 12.7251 31.9087C13.211 31.9087 13.6737 31.5099 13.6506 31.0417C13.6275 30.5736 13.2434 30.1748 12.7251 30.1748Z" fill="#EE2124"/>
</svg>
