<svg width="48" height="40" viewBox="0 0 48 40" fill="none" xmlns="http://www.w3.org/2000/svg">
<path d="M46.0318 3.20158C46.0318 4.81222 46.0318 6.42286 46.0318 8.0335C46.0318 8.26008 46.0318 8.49157 46.0318 8.71815C46.3598 8.38814 46.6829 8.06306 47.011 7.73305C46.5997 7.73305 46.1884 7.73305 45.7723 7.73305C44.6559 7.73305 43.5396 7.73305 42.4233 7.73305C40.7733 7.73305 39.1233 7.73305 37.4733 7.73305C35.4512 7.73305 33.434 7.73305 31.4119 7.73305C29.2135 7.73305 27.0201 7.73305 24.8217 7.73305C22.589 7.73305 20.3564 7.73305 18.1238 7.73305C16.0478 7.73305 13.9767 7.73305 11.9008 7.73305C10.148 7.73305 8.39514 7.73305 6.64232 7.73305C5.37912 7.73305 4.11102 7.73305 2.84781 7.73305C2.25049 7.73305 1.65316 7.71827 1.05583 7.73305C1.03135 7.73305 1.00687 7.73305 0.97749 7.73305C1.30553 8.06306 1.62868 8.38814 1.95672 8.71815C1.95672 6.94004 1.95672 5.15701 1.95672 3.3789C1.95672 3.29516 1.95672 3.21636 1.95672 3.13262C1.95672 3.14247 1.95672 2.99963 1.96651 2.99471C1.94203 3.00456 1.92734 3.22128 1.96651 3.02426C1.98609 2.92575 2.01547 2.83217 2.04485 2.73858C2.09871 2.55141 2.02037 2.79769 2.02037 2.79276C2.01058 2.77799 2.08402 2.6647 2.09381 2.645C2.11829 2.59574 2.14767 2.55141 2.17704 2.50708C2.18684 2.48738 2.20152 2.4726 2.21132 2.4529C2.27007 2.36917 2.26028 2.38395 2.17215 2.49723C2.16236 2.4726 2.31903 2.33469 2.34351 2.31006C2.38268 2.27558 2.42675 2.24111 2.46102 2.2017C2.54425 2.10319 2.26517 2.32484 2.44144 2.2214C2.51488 2.17707 2.58342 2.12782 2.66176 2.08841C2.71072 2.06379 2.85271 2.04409 2.72052 2.05394C2.57363 2.06871 2.77437 2.03916 2.81844 2.02438C2.91146 1.99483 3.01428 1.9899 3.10731 1.96035C2.91146 2.02438 2.97022 1.97513 3.04856 1.97513C2.92615 1.97513 3.30805 1.9702 3.18565 1.9702C3.19054 1.9702 3.19054 1.9702 3.19544 1.9702C3.3717 1.9702 3.54307 1.9702 3.71933 1.9702C4.78179 1.9702 5.84425 1.9702 6.91161 1.9702C8.7036 1.9702 10.4907 1.9702 12.2827 1.9702C14.53 1.9702 16.7773 1.9702 19.0247 1.9702C21.4629 1.9702 23.9061 1.9702 26.3444 1.9702C28.6896 1.9702 31.0349 1.9702 33.3801 1.9702C35.368 1.9702 37.3558 1.9702 39.3436 1.9702C40.7048 1.9702 42.061 1.9702 43.4221 1.9702C43.7795 1.9702 44.1418 1.9702 44.4993 1.9702C44.5825 1.9702 44.6706 1.9702 44.7539 1.9702C44.7686 1.9702 44.7881 1.9702 44.8028 1.9702C44.8273 1.9702 44.8469 1.9702 44.8763 1.9702C44.9105 1.9702 44.984 1.98498 45.0134 1.98005C44.8959 2.01453 44.842 1.94558 44.9497 1.9702C45.0623 1.99483 45.1847 2.04901 45.2973 2.06379C45.4246 2.08349 45.0917 1.9505 45.2729 2.05394C45.312 2.07364 45.3512 2.09334 45.3855 2.11304C45.4246 2.13767 45.6841 2.29529 45.5519 2.21648C45.4197 2.13274 45.5813 2.24603 45.6009 2.26081C45.6303 2.29036 45.6645 2.31991 45.6939 2.34947C45.7233 2.37902 45.7527 2.4135 45.7821 2.44305C45.924 2.59082 45.7135 2.30514 45.7674 2.42335C45.8065 2.50708 45.8751 2.58589 45.9191 2.66962C45.9142 2.6647 45.9779 2.77799 45.9779 2.78784C45.9926 2.76814 45.9045 2.57604 45.9632 2.76813C45.9926 2.86172 46.0171 2.96023 46.0366 3.05874C46.0758 3.25083 46.0269 2.99471 46.0269 2.99471C46.0367 2.99963 46.0318 3.1868 46.0318 3.20158C46.0415 3.71876 46.4773 4.21131 47.011 4.18668C47.5349 4.16205 48 3.75324 47.9902 3.20158C47.9657 1.4284 46.541 0.0147765 44.7832 0C44.5776 0 44.3671 0 44.1614 0C43.0255 0 41.8896 0 40.7586 0C38.8981 0 37.0375 0 35.177 0C32.8562 0 30.5355 0 28.2098 0C25.7422 0 23.2745 0 20.8069 0C18.4518 0 16.0968 0 13.7466 0C11.798 0 9.85419 0 7.90553 0C6.65211 0 5.4036 0 4.15019 0C3.87111 0 3.58713 0 3.30805 0C2.16725 0 1.14396 0.522104 0.512357 1.4875C-0.104557 2.4135 0.00805454 3.53651 0.00805454 4.59057C0.00805454 5.73822 0.00805454 6.88586 0.00805454 8.0335C0.00805454 8.26008 0.00805454 8.49157 0.00805454 8.71815C0.00805454 9.2501 0.458499 9.70325 0.987282 9.70325C1.39856 9.70325 1.80983 9.70325 2.22601 9.70325C3.34232 9.70325 4.45864 9.70325 5.57496 9.70325C7.22496 9.70325 8.87496 9.70325 10.525 9.70325C12.5471 9.70325 14.5643 9.70325 16.5864 9.70325C18.7847 9.70325 20.9782 9.70325 23.1766 9.70325C25.4092 9.70325 27.6419 9.70325 29.8745 9.70325C31.9505 9.70325 34.0215 9.70325 36.0975 9.70325C37.8503 9.70325 39.6031 9.70325 41.3559 9.70325C42.6191 9.70325 43.8872 9.70325 45.1504 9.70325C45.7478 9.70325 46.3451 9.7131 46.9424 9.70325C46.9669 9.70325 46.9914 9.70325 47.0208 9.70325C47.5496 9.70325 48 9.2501 48 8.71815C48 7.10751 48 5.49687 48 3.88622C48 3.65965 48 3.42815 48 3.20158C48 2.6844 47.5496 2.19185 47.0208 2.21648C46.4822 2.24111 46.0318 2.64992 46.0318 3.20158Z" fill="#EE2124"/>
<path d="M43.7796 8.71795C43.7796 9.42723 43.7796 10.1414 43.7796 10.8507C43.7796 12.6288 43.7796 14.402 43.7796 16.1801C43.7796 18.4902 43.7796 20.7953 43.7796 23.1054C43.7796 25.4105 43.7796 27.7206 43.7796 30.0257C43.7796 31.7989 43.7796 33.5671 43.7796 35.3403C43.7796 36.0644 43.7601 36.7884 43.7796 37.5125C43.7845 37.7243 43.8384 37.3696 43.7894 37.4829C43.7699 37.5272 43.7601 37.5962 43.7503 37.6405C43.7209 37.7932 43.7405 37.5617 43.7796 37.5863C43.7845 37.5863 43.716 37.7095 43.7209 37.6996C43.7013 37.739 43.6768 37.7735 43.6572 37.808C43.5593 37.9853 43.7699 37.7046 43.6768 37.7834C43.6475 37.808 43.6181 37.8425 43.5887 37.877C43.5642 37.9016 43.5446 37.9213 43.5202 37.941C43.6279 37.8622 43.6524 37.8425 43.5936 37.8819C43.5838 37.8868 43.3537 38.0395 43.3439 38.0247C43.3194 37.9804 43.5544 37.9607 43.3978 37.9952C43.3586 38.005 43.3096 38.0149 43.2705 38.0296C43.0648 38.0937 43.4369 38.0296 43.2998 38.0247C43.3439 38.0247 43.0697 38.0296 43.197 38.0296C43.197 38.0296 43.197 38.0296 43.1921 38.0296C43.1432 38.0296 43.0991 38.0296 43.0501 38.0296C42.7564 38.0296 42.4577 38.0296 42.1639 38.0296C40.8958 38.0296 39.6326 38.0296 38.3645 38.0296C36.4403 38.0296 34.5162 38.0296 32.592 38.0296C30.3006 38.0296 28.0141 38.0296 25.7227 38.0296C23.3628 38.0296 21.0028 38.0296 18.6429 38.0296C16.5033 38.0296 14.3685 38.0296 12.2289 38.0296C10.6034 38.0296 8.98279 38.0296 7.35727 38.0296C6.54452 38.0296 5.72686 38.0296 4.9141 38.0296C4.87004 38.0296 4.82597 38.0296 4.7868 38.0296C4.76722 38.0296 4.73784 38.0296 4.71825 38.0296C4.50282 38.0346 4.87004 38.0789 4.74763 38.0395C4.70846 38.0247 4.6644 38.0198 4.62033 38.0099C4.41959 37.9656 4.6595 38.005 4.64481 38.0346C4.64481 38.0395 4.52241 37.9705 4.5322 37.9755C4.49303 37.9558 4.45876 37.9311 4.42449 37.9114C4.25312 37.8179 4.54689 38.0444 4.42449 37.9114C4.40001 37.8819 4.36573 37.8474 4.33636 37.8228C4.18947 37.6898 4.39511 37.9607 4.35104 37.8474C4.34615 37.8376 4.19926 37.6061 4.20906 37.5962C4.22864 37.5814 4.2776 37.8376 4.23843 37.6504C4.22864 37.611 4.21885 37.5617 4.20416 37.5223C4.14051 37.3154 4.20416 37.6898 4.20906 37.5519C4.20906 37.5913 4.20416 37.3302 4.20416 37.4484C4.19926 37.2514 4.20416 37.0544 4.20416 36.8574C4.20416 35.5373 4.20416 34.2124 4.20416 32.8923C4.20416 30.7793 4.20416 28.6613 4.20416 26.5483C4.20416 24.1742 4.20416 21.8001 4.20416 19.426C4.20416 17.3277 4.20416 15.2245 4.20416 13.1263C4.20416 11.8358 4.20416 10.5404 4.20416 9.24991C4.20416 9.07259 4.20416 8.89527 4.20416 8.72288C3.87612 9.05289 3.55297 9.37797 3.22493 9.70798C3.59214 9.70798 3.96425 9.70798 4.33146 9.70798C5.34006 9.70798 6.34867 9.70798 7.35727 9.70798C8.8457 9.70798 10.3341 9.70798 11.8177 9.70798C13.639 9.70798 15.4604 9.70798 17.2817 9.70798C19.2696 9.70798 21.2574 9.70798 23.2452 9.70798C25.2527 9.70798 27.2601 9.70798 29.2626 9.70798C31.1329 9.70798 33.0032 9.70798 34.8736 9.70798C36.4599 9.70798 38.0463 9.70798 39.6375 9.70798C40.7734 9.70798 41.9093 9.70798 43.0501 9.70798C43.5887 9.70798 44.1322 9.71783 44.6707 9.70798C44.6952 9.70798 44.7148 9.70798 44.7393 9.70798C45.2534 9.70798 45.743 9.25483 45.7185 8.72288C45.694 8.19092 45.2877 7.73778 44.7393 7.73778C44.3721 7.73778 44 7.73778 43.6328 7.73778C42.6242 7.73778 41.6156 7.73778 40.607 7.73778C39.1185 7.73778 37.6301 7.73778 36.1466 7.73778C34.3252 7.73778 32.5038 7.73778 30.6825 7.73778C28.6946 7.73778 26.7068 7.73778 24.719 7.73778C22.7116 7.73778 20.7041 7.73778 18.7016 7.73778C16.8313 7.73778 14.961 7.73778 13.0907 7.73778C11.5043 7.73778 9.91795 7.73778 8.32671 7.73778C7.1908 7.73778 6.0549 7.73778 4.9141 7.73778C4.37552 7.73778 3.83205 7.72793 3.29348 7.73778C3.269 7.73778 3.24941 7.73778 3.22493 7.73778C2.69615 7.73778 2.2457 8.19092 2.2457 8.72288C2.2457 9.44693 2.2457 10.171 2.2457 10.895C2.2457 12.6928 2.2457 14.4956 2.2457 16.2934C2.2457 18.633 2.2457 20.9677 2.2457 23.3073C2.2457 25.6223 2.2457 27.9324 2.2457 30.2473C2.2457 32.0008 2.2457 33.7494 2.2457 35.5029C2.2457 36.0003 2.2457 36.4978 2.2457 36.9953C2.2457 37.3893 2.23102 37.7834 2.34852 38.1676C2.69615 39.3103 3.73413 39.9998 4.89941 39.9998C5.18339 39.9998 5.46736 39.9998 5.75134 39.9998C7.01454 39.9998 8.27775 39.9998 9.54585 39.9998C11.4798 39.9998 13.4089 39.9998 15.3429 39.9998C17.649 39.9998 19.9501 39.9998 22.2562 39.9998C24.6308 39.9998 27.0104 39.9998 29.385 39.9998C31.5393 39.9998 33.6985 39.9998 35.8528 39.9998C37.4734 39.9998 39.094 39.9998 40.7147 39.9998C41.5078 39.9998 42.3059 39.9998 43.0991 39.9998C44.2742 39.9998 45.4052 39.2462 45.6647 38.0444C45.743 37.6799 45.7332 37.3253 45.7332 36.9559C45.7332 35.6703 45.7332 34.3848 45.7332 33.0992C45.7332 30.9911 45.7332 28.8781 45.7332 26.7699C45.7332 24.3712 45.7332 21.9725 45.7332 19.5738C45.7332 17.446 45.7332 15.3132 45.7332 13.1854C45.7332 11.8752 45.7332 10.5699 45.7332 9.25976C45.7332 9.08244 45.7332 8.9002 45.7332 8.72288C45.7332 8.2057 45.2828 7.71315 44.754 7.73778C44.2301 7.75748 43.7796 8.1663 43.7796 8.71795Z" fill="#EE2124"/>
<path d="M30.1293 17.7119C28.1366 17.7119 26.1438 17.7119 24.1462 17.7119C22.0604 17.7119 19.9698 17.7366 17.8791 17.7119C17.8742 17.7119 17.8742 17.7119 17.8694 17.7119C17.9379 17.7119 17.6686 17.707 17.7323 17.707C17.5021 17.7119 17.9526 17.7563 17.7274 17.7119C17.6197 17.6873 17.5168 17.6578 17.414 17.6282C17.2035 17.574 17.605 17.7317 17.4091 17.6331C17.3357 17.5937 17.2573 17.5543 17.1888 17.51C17.1986 17.5149 17.0811 17.441 17.0811 17.441C17.0811 17.441 17.2524 17.5888 17.0811 17.4361C17.0517 17.4115 16.8069 17.1898 16.8216 17.1603C16.8265 17.1504 16.944 17.3573 16.8461 17.18C16.8216 17.1357 16.7922 17.0913 16.7628 17.0421C16.7579 17.0273 16.6698 16.8795 16.6796 16.8697C16.7383 17.0076 16.7432 17.0273 16.709 16.9239C16.6943 16.8845 16.6845 16.8401 16.6698 16.8007C16.6551 16.7465 16.6453 16.6924 16.6306 16.6431C16.5915 16.4412 16.6208 16.6727 16.6306 16.6727C16.6062 16.6677 16.6257 16.3673 16.6257 16.3328C16.6208 16.1062 16.5719 16.5495 16.6208 16.3279C16.6306 16.2836 16.6355 16.2441 16.6502 16.1998C16.6649 16.1358 16.6894 16.0767 16.7041 16.0126C16.7432 15.9141 16.7334 15.9289 16.6747 16.0668C16.6894 16.0274 16.709 15.988 16.7286 15.9486C16.7334 15.9388 16.8803 15.6679 16.8901 15.6777C16.8901 15.6777 16.7432 15.8501 16.895 15.6777C16.9391 15.6285 16.9832 15.5841 17.0272 15.5398C17.037 15.5299 17.1594 15.4068 17.1692 15.4167C17.1888 15.4265 16.9929 15.5349 17.1251 15.4561C17.179 15.4265 17.2329 15.3871 17.2867 15.3576C17.3259 15.3379 17.3602 15.3182 17.3993 15.2985C17.4972 15.2541 17.4777 15.264 17.3406 15.3231C17.3357 15.3034 17.6148 15.2393 17.649 15.2344C17.6686 15.2295 17.6931 15.2246 17.7127 15.2196C17.8204 15.1999 17.8008 15.2049 17.649 15.2295C17.649 15.2196 17.8351 15.2196 17.8498 15.2196C17.8596 15.2196 17.8743 15.2196 17.884 15.2196C17.9722 15.2196 18.0603 15.2196 18.1484 15.2196C18.5352 15.2196 18.922 15.2196 19.3088 15.2196C22.0604 15.2196 24.817 15.2196 27.5686 15.2196C28.3863 15.2196 29.2039 15.2196 30.0216 15.2196C30.0461 15.2196 30.0656 15.2196 30.0901 15.2196C30.095 15.2196 30.0999 15.2196 30.1048 15.2196C30.1195 15.2196 30.1587 15.2196 30.1733 15.2196C30.2174 15.2196 30.2615 15.2246 30.3055 15.2295C30.1538 15.2049 30.1342 15.2049 30.2419 15.2196C30.2762 15.2295 30.6189 15.2985 30.6189 15.3231C30.6189 15.3379 30.4279 15.2295 30.5601 15.2985C30.6189 15.328 30.6728 15.3576 30.7266 15.3871C30.7364 15.392 30.8882 15.4856 30.8882 15.4905C30.8882 15.4905 30.7168 15.3428 30.8882 15.4955C30.9176 15.5201 31.1624 15.7417 31.1477 15.7713C31.1232 15.7368 31.0938 15.7073 31.0693 15.6728C31.0938 15.7073 31.1183 15.7417 31.1379 15.7812C31.1722 15.8353 31.2015 15.8895 31.2309 15.9486C31.2407 15.9683 31.2505 15.988 31.2603 16.0077C31.2946 16.0865 31.2946 16.0865 31.2603 16.0077C31.2505 15.988 31.2456 15.9683 31.2358 15.9486C31.2505 15.988 31.2652 16.0324 31.275 16.0718C31.2946 16.1358 31.3093 16.1998 31.3239 16.2639C31.3288 16.2836 31.3337 16.3082 31.3386 16.3279C31.3582 16.4362 31.3533 16.4165 31.3288 16.2639C31.3533 16.2688 31.3337 16.5692 31.3337 16.6037C31.3386 16.8303 31.3876 16.387 31.3386 16.6086C31.3239 16.6727 31.3141 16.7367 31.2946 16.8007C31.2897 16.8155 31.2407 16.9879 31.2358 16.9879C31.2309 16.9879 31.3484 16.7613 31.2603 16.9288C31.2456 16.9583 31.0889 17.2687 31.0693 17.2588C31.0693 17.2588 31.2162 17.0864 31.0644 17.2588C31.0204 17.3081 30.9763 17.3524 30.9322 17.3967C30.9225 17.4066 30.8001 17.5297 30.7903 17.5199C30.8245 17.4952 30.8539 17.4657 30.8882 17.441C30.8539 17.4657 30.8196 17.4903 30.7805 17.51C30.756 17.5248 30.5161 17.6775 30.5014 17.6578C30.5406 17.643 30.5797 17.6233 30.6189 17.6085C30.5797 17.6233 30.5357 17.6381 30.4965 17.6479C30.4328 17.6676 30.3692 17.6824 30.3055 17.6972C30.286 17.7021 30.2615 17.707 30.2419 17.7119C30.1342 17.7317 30.1538 17.7267 30.3055 17.7021C30.3251 17.7119 30.144 17.7119 30.1293 17.7119C29.6152 17.7218 29.1256 18.1602 29.1501 18.6971C29.1745 19.2241 29.5809 19.692 30.1293 19.6822C31.5345 19.6624 32.7781 18.7414 33.1894 17.3869C33.5958 16.057 33.0474 14.6384 31.9506 13.8356C31.0449 13.1706 29.9726 13.2544 28.9199 13.2544C26.0655 13.2544 23.2159 13.2544 20.3615 13.2544C19.5438 13.2544 18.7262 13.2494 17.9036 13.2544C16.8118 13.2593 15.8326 13.7863 15.2108 14.6877C14.4812 15.7417 14.4959 17.2637 15.2499 18.303C15.8815 19.1748 16.8363 19.6772 17.9134 19.6822C18.1876 19.6822 18.4618 19.6822 18.7311 19.6822C19.9992 19.6822 21.2722 19.6822 22.5403 19.6822C25.0177 19.6822 27.5001 19.6822 29.9775 19.6822C30.0265 19.6822 30.0754 19.6822 30.1195 19.6822C30.6336 19.6822 31.1232 19.229 31.0987 18.6971C31.084 18.1651 30.6777 17.7119 30.1293 17.7119Z" fill="#EE2124"/>
</svg>
