<svg width="81" height="29" viewBox="0 0 81 29" fill="none" xmlns="http://www.w3.org/2000/svg">
<path d="M75.0435 1.90329L65.8837 11.0734L68.2945 13.4814L77.4542 4.31131L75.0435 1.90329Z" fill="white"/>
<path d="M61.8711 0H58.4777V9.82964H61.8711V0Z" fill="white"/>
<path d="M80.0067 17.2848H69.9714V20.6829H80.0067V17.2848Z" fill="white"/>
<path d="M62.6704 23.8613C61.8665 24.7027 60.8849 25.1 59.7164 25.1C58.5852 25.1 57.599 24.7027 56.7997 23.8613C55.9958 23.02 55.5564 22.0337 55.5564 20.9026C55.5564 19.6967 55.9958 18.7105 56.7997 17.9065C57.599 17.0652 58.5852 16.6632 59.7164 16.7006C60.8849 16.6632 61.8665 17.0652 62.7078 17.9065C63.4744 18.7105 63.8763 19.6967 63.9137 20.9026C63.8763 22.0337 63.4743 23.02 62.6704 23.8613ZM65.3346 15.2376C63.7688 13.6671 61.8711 12.8959 59.7164 12.8959C57.5663 12.8959 55.7013 13.6671 54.1729 15.2376C52.6024 16.8081 51.8358 18.7058 51.8358 20.8979C51.8358 23.0901 52.5977 24.9878 54.1729 26.5256C55.7013 28.1007 57.5663 28.9 59.7164 28.9C61.8665 28.9 63.7641 28.1007 65.3346 26.5256C66.8678 24.9925 67.6343 23.0901 67.6343 20.8979C67.6343 18.7105 66.8678 16.8128 65.3346 15.2376Z" fill="white"/>
<path d="M9.77355 8.99298C7.0392 8.95559 4.77694 9.90443 2.87925 11.8769C0.944169 13.8167 0 16.1163 0 18.8553C0 21.557 0.948843 23.9361 2.87925 25.8712C4.77226 27.7689 7.0392 28.7224 9.77355 28.7224C11.9657 28.7224 13.9709 28.0633 15.719 26.7125C17.4344 25.3243 18.5655 23.6089 19.1498 21.4915H15.1721C14.6627 22.5152 13.9335 23.3518 13.0174 24.0109C11.9938 24.6325 10.9374 24.9644 9.76888 24.9644C8.09088 24.9644 6.66995 24.3427 5.50142 23.1742C4.30018 21.9683 3.71591 20.5474 3.74863 18.8647C3.71124 17.1867 4.30018 15.7611 5.50142 14.5552C6.66995 13.3866 8.09088 12.765 9.76888 12.765C10.9374 12.765 11.9938 13.0922 13.0174 13.7512C13.9288 14.3729 14.658 15.2469 15.1721 16.2706H19.1498C18.5655 14.1532 17.4344 12.3957 15.719 11.0496C13.9709 9.64736 11.9657 8.95559 9.77355 8.99298Z" fill="white"/>
<path d="M35.4578 21.4495L36.1869 21.0522V22.5853C36.1869 23.8987 35.8223 24.8102 35.1306 25.3243C34.4014 25.8338 33.6349 26.0909 32.7561 26.0909C32.2093 26.0909 31.7699 25.946 31.4053 25.6562C31.0407 25.3243 30.8584 24.8522 30.8584 24.1558C30.8584 23.3892 31.1529 22.8377 31.7699 22.4357C32.1345 22.216 32.7561 22.0337 33.5601 21.9262L35.4578 21.4495ZM33.8545 12.8631C31.3025 12.8257 29.5123 13.5222 28.4933 14.873C27.839 15.7097 27.5118 16.8128 27.3996 18.1963H31.195C31.2651 17.5419 31.4894 17.0979 31.7418 16.8081C32.1438 16.2939 32.7982 16.0369 33.747 16.0742C34.551 16.0369 35.168 16.1818 35.6073 16.4388C36.042 16.6585 36.229 17.0979 36.2617 17.7195C36.2617 18.229 35.9672 18.6357 35.3876 18.8881L32.4663 19.3601C31.1155 19.5471 30.0264 19.8696 29.1851 20.3511C27.7642 21.1924 27.0724 22.5432 27.1098 24.483C27.0724 25.8291 27.5118 26.9275 28.3858 27.7315C29.1524 28.3905 30.2087 28.7551 31.4894 28.7925C33.5694 28.7551 35.2054 28.2409 36.3739 27.2173V28.7925H40.1693V17.612C40.1693 15.7845 39.5055 14.5084 38.2716 13.8494C36.9535 13.1576 35.4952 12.8257 33.8545 12.8631Z" fill="white"/>
<path d="M24.8803 8.99298H21.0849V28.7925H24.8803V8.99298Z" fill="white"/>
<path d="M49.0267 13.4147C48.0077 13.8167 47.0963 14.5131 46.3251 15.5695V13.6344L42.712 13.6017V28.7925H46.47V21.5243C46.47 20.2809 46.6149 19.4069 46.9467 18.8553C47.1991 18.2758 47.6759 17.799 48.2601 17.397C48.9145 16.9577 49.6063 16.738 50.3401 16.738L51.504 16.8128L51.4712 12.9379L50.485 13.0127L49.0267 13.4147Z" fill="white"/>
</svg>
